<svg xmlns="http://www.w3.org/2000/svg" width="48" height="48" fill="none"><defs><radialGradient id="b" cx="0" cy="0" r="1" gradientTransform="matrix(2.89603 .7924 -.50946 1.86195 25.463 9.225)" gradientUnits="userSpaceOnUse"><stop offset=".45" stop-color="#6D4C41" stop-opacity="0"/><stop offset="1" stop-color="#6D4C41"/></radialGradient><clipPath id="a"><rect width="47" height="47" fill="#fff" fill-opacity="0" rx="-.5" transform="translate(.5 .5)"/></clipPath></defs><rect width="47" height="47" fill="none" rx="-.5" transform="translate(.5 .5)"/><g clip-path="url(#a)"><path fill="#FFD3B6" d="M25.27 13.57s.42 1.62-1.38 2.04c-1.57.37-1.9-1.22-1.9-1.22s-.35-1.61-1.07-1.76c-.28-.06-.34 0-1.12-.11-1.34-.21-1.69-.85-1.8-1.44-.04-.18-.06-.36-.07-.51-.02-.22-.04-.39-.11-.49-.06-.08-.89-.4-.78-.8.15-.53 1.13-.95 1.09-1.45 0-.12-.08-.54-.09-.6-.08-.47-.05-1.13.1-1.78.41-1.8 1.58-3.16 3.6-3.36 1.8-.16 3.86 1.18 4.71 2.78.54 1.03-.25 3.68-1.17 5.09-1.2 1.83-.01 3.61-.01 3.61Z"/><path fill="#795548" d="M18.93 10.88c-.29.18-.61.23-.93.2-.04-.18-.06-.36-.07-.51.26.05.58.03.77-.03.35-.12.54.14.23.34Z"/><path fill="#404040" fill-rule="evenodd" d="M19.58 7.55c.24.01.42.31.41.67-.02.37-.22.66-.46.65-.23-.01-.41-.31-.4-.68.02-.36.22-.65.45-.64Z"/><path fill="#6D4C41" d="M19.32 7.29c-.41.13-.52-.14-.38-.37.09-.16.34-.31.83-.23.46.08.66.34.79.49.13.16.12.32.02.34-.15.03-.75-.4-1.26-.23Z"/><path fill="#008AC7" d="m37.07 30.99-6.97 1.39-1.93-6.7-4.67 3.12 3.4 6.82.02-.01c.28.51.75.88 1.31 1.05.16.06.33.09.51.1h.05c.21.01.42 0 .62-.04L38 33.45l-.93-2.46Z"/><path fill="#72CDE8" d="M38.56 29.56a.416.416 0 0 0-.58-.15l-.89.53c-.6.36-.93 1.39-.93 1.39l1.32 2.21 1.85 1.61c.48.37 1.13.41 1.65.11l.4-.24c.18-.11.24-.33.14-.51l-2.96-4.95Z"/><path fill="#00B1FF" d="m16.82 42.67 4.28-8.17s5.32-4.41 5.79-4.73c1.74-1.16 2.08-2.77 1.91-3.95-.14-.91-.74-2.12-.74-2.12l-6.99 2.08.33 1.29s-2.15 2.76-2.64 3.34c-.5.58-1.36 1.39-2.02 3.66-.7 2.4-2.46 8.19-2.46 8.19l2.54.41Z"/><path fill="#72CDE8" d="M16.81 45.22c.24.03.45-.12.49-.35l.17-1.03c.11-.69-.46-1.6-.46-1.6l-2.55-.42-2.42.38c-.59.13-1.04.6-1.14 1.2l-.08.46c-.04.2.1.39.3.43l5.69.93Z"/><path fill="#FFD3B6" d="m18.77 18.38-3.36-2.56-1.64 1.75 3.39 3.28h.01c.66.69 2.22 1.17 3.51-.01 1.23-1.12 2.75-3.51 2.75-3.51l-2.63-2.11-2.03 3.16Z"/><path fill="#597B91" d="M18.85 16.85c.96 2.69 3.32 2.78 3.32 2.78l1.89-3.23c.24-.42.31-.91.18-1.38-.12-.47-.42-.86-.84-1.11l-.31-.18c-.86-.51-1.6-.26-2.77 1.44-1.04 1.53-1.47 1.68-1.47 1.68Z"/><path fill="#597B91" d="M21.07 25.78c-.93-3.69-1.11-6.28-.9-8.36.27-2.62 1.52-4.18 2.93-4.67 1.73-.62 2.93.27 3.41 1.83.33 1.07.27 1.89.24 2.4 0 0-.24 2.8 1.99 6.31 0 0-.21 1.52-3.77 2.36-1.58.37-3.9.13-3.9.13Z"/><path fill="#FFD3B6" d="M26.79 22.35s-1.63-.81-1.64-.82a.983.983 0 0 0-.16-.05c-.06 0-.11 0-.16.02a.36.36 0 0 0-.15.08c-.04.03-.08.07-.1.12l-.35.66c-.06.11-.06.23-.02.33-.19.11-.65.4-.75.59-.11.22.01.45.13.5.14.06.21.25.16.4-.04.15-.04.3.03.43.08.12.17.17.34.2.08.02.17.12.17.21-.01.12-.01.34.06.43.13.17.33.11.44.24.05.05.05.26.13.34.26.24 1.09-.2 1.09-.2l1.58-1.47-.8-2.01Z"/><path fill="#FFD3B6" d="m26.27 22.09 1 .29.69 1.89s-2.15 2.11-2.51 1.52c-.12-.19.1-.38-.21-.5-.22-.08-.39-.19-.33-.53.03-.13-.07-.28-.16-.3-.41-.04-.51-.27-.39-.55.07-.16.05-.43-.18-.55-.08-.04-.2-.23-.14-.49.08-.41 2.23-.78 2.23-.78Z"/><path fill="#FFD3B6" d="M27.64 24.51 31.35 22c.45-.44.61-.75.7-1.12.28-1.16-.48-1.97-.48-1.97l-3.43-3.84-2.11 2.19 3.01 3.01-2.25 2.08.85 2.16Z"/><path fill="#597B91" d="M27.72 19.5s2.27-2.25 2.21-3.98c0 0-1.08 0-2.69-1.22-1.02-.76-2.37-.83-2.91.07-.49.78-.41 1.75.52 2.87.7.83 2.87 2.26 2.87 2.26Z"/><path fill="#FFD3B6" d="M13.6 16.27h-.01c-.16.21-.44.26-.62.12l-.73-.55c-.18-.13-.19-.41-.03-.61s.44-.26.62-.12l.73.55c.18.14.21.4.04.61Z"/><path fill="#FFD3B6" d="M14.22 13.96c.01.01.01.02.01.02.34.35.63.65.76.73.34.21.65.48.85.86.36.71-.1 1.41-.65 1.92-.54.52-.88.63-1.47.53-.48-.08-1.49-1.15-1.49-1.15-.11-.13-.23-.25-.35-.37-.04-.05-.09-.09-.14-.14v-.01c-.14-.13-.16-.31 0-.5.2-.25.4-.12.42-.1.1.09.2.21.27.26.22.16.34.19.34.19l1.03-1.3-.35-.47-.01-.02c-.04-.06-.19-.27.09-.52.31-.26.63.01.69.07Z"/><path fill="#FFD3B6" d="M14.18 15.73c-.17.19-.46.22-.63.07l-.77-.69c-.17-.15-.16-.43.02-.62s.46-.22.63-.07l.77.69c.17.16.16.43-.02.62Z"/><path fill="#FFD3B6" d="M13.18 15.84c.17-.24.37-.54.6-.8.03-.04.06-.07.1-.11.31-.32.73-.38 1.24-.1.02.02.04.02.05.03.04.02.07.04.1.06.05.03.09.06.14.1.15.11.27.25.34.38.28.46.2.89.2.89s-.33 1-.82.83c-.48-.18-.73-.87-.73-.87l.12-.51c-.14-.01-.27.05-.44.25-.06.06-.12.14-.2.24-.01.01-.1.12-.11.13-.11.12-.24.18-.39.17-.2-.01-.37-.2-.46-.28.07-.08.16-.28.26-.41Z"/><path fill="#FFD3B6" d="m12.96 17 .6-.5.33-.36.41-.37.15.06-.09.48.32.47.2.17-1.04.73-.88-.68Z"/><path fill="#FFD3B6" d="M13 16.73c-.01.23-.24.36-.22.36.06.03.37-.05.72-.44.27-.3.53-.7.85-.79-.11.53.12.94.56 1.1-.33-.31-.6-.84-.3-1.26-.25-.15-.54.1-.68.28-.17.2-.32.52-.63.48-.22-.03-.3-.16-.22-.37.19-.49.63-1 1.08-1.28.16-.1.5-.13.93-.04-.32-.25-.86-.17-1.07-.07-.17.08-.13.05-.28-.05-.08-.06-.16-.11-.24-.16.07.11.18.24.2.36.02.15-.13.28-.22.39-.23.28-.43.04-.67-.11.16.19.2.25.28.39.11.18-.06.33-.18.47-.24.3-.74-.3-.78-.26-.03.04.88.74.87 1Z"/><path fill="#CF5700" d="M27.59 4.8c-.47-1.25-1.47-1.64-1.8-1.74-.15-.46-.89-2.18-3.72-1.76-.69.1-1.2.42-1.65.7-.19.12-.37.23-.54.31-.14.06-.38.12-.58.05-.46-.16-.3-.85-.3-.85s-1.67.3-.98 1.93c-.56.23-.83.82-.94 1.38-.15.75.21 1.49.93 1.83 0 0-.12-1.23 1.65-1.12.54.03 1.11.12 1.63-.07.19-.08.38-.2.57-.29h.06c.67.37-.24 1.93.48 2.87.15.19.27.12.27.12l.31-.43c.24-.3.44-.55.73-.49.82.2.65 1.68-.34 1.99-.1.03.1 1.7 2.14 1.73 1.06.02 1.45-.85 1.45-.85s-.45.11-.54-.28c-.05-.2.14-.46.47-.75.97-.84.64-1.81.51-2.12.14-.28.56-1.18.19-2.16Z"/><path fill="#CF5700" d="M27.39 6.96c.02-.03-.3.75-1.65.6-.56-.02-1.36 1.31-.56 2.21.7.8 1.77.35 1.77.35s-.14.04-.36-.04c-.13-.05-.18-.23-.18-.24-.05-.2.14-.47.48-.75.96-.84.64-1.82.5-2.13Z"/><path fill="#CF5700" d="M27.59 4.8c-.25-.66-.71-1.22-1.34-1.55-.09-.04-.31-.16-.46-.19.07.29.05.61-.08.92 0 .01-.15.49-.57.86.29.42.43.92.57 1.41.11.44.22.91.03 1.31.25-.01.67.07 1.12-.13.44-.19.68-.68.79-1.13.13-.5.12-1.02-.06-1.5Z"/><path fill="#CF5700" d="M25.71 3.98c.34-.83-.11-1.61-.79-2.14-.81-.62-1.88-.69-2.85-.54-.69.1-1.2.42-1.65.7-.19.12-.37.23-.54.31-.14.06-.38.12-.58.05-.46-.16-.3-.85-.3-.85s-1.67.3-.98 1.93c-.56.23-.83.82-.94 1.38-.15.76.21 1.49.93 1.83 0 0-.12-1.23 1.65-1.12.54.03 1.11.12 1.63-.07.45-.17.61-.41 1.11-.38.55.05 1.26.26 1.82.19 1.14-.16 1.49-1.27 1.49-1.29Z"/><path fill="url(#b)" d="M25.18 9.77c-.36-.39-.45-1.03-1.01-1.38-.11.37-.38.71-.81.84-.1.04.1 1.7 2.15 1.73 1.06.02 1.45-.85 1.45-.85s-1.06.45-1.78-.34Z"/></g></svg>